<?xml version="1.0" encoding="iso-8859-1"?>
<!-- Generator: Adobe Illustrator 16.0.0, SVG Export Plug-In . SVG Version: 6.00 Build 0)  -->
<!DOCTYPE svg PUBLIC "-//W3C//DTD SVG 1.1//EN" "http://www.w3.org/Graphics/SVG/1.1/DTD/svg11.dtd">
<svg version="1.1" id="Capa_1" xmlns="http://www.w3.org/2000/svg" xmlns:xlink="http://www.w3.org/1999/xlink" x="0px" y="0px"
	 width="344.333px" height="344.333px" viewBox="0 0 344.333 344.333" style="enable-background:new 0 0 344.333 344.333;"
	 xml:space="preserve">
<g>
	<g>
		<g>
			<path d="M172.239,80.703c14.796,0,26.902-12.105,26.902-26.901V26.901C199.141,12.106,187.036,0,172.239,0
				c-14.795,0-26.901,12.105-26.901,26.901v26.901C145.339,69.271,157.444,80.703,172.239,80.703z"/>
			<path d="M172.239,138.541c-8.743,0-17.486,3.363-23.539,10.088c-6.053,6.053-10.088,14.796-10.088,23.539
				s3.363,17.485,10.088,23.538c6.053,6.053,14.796,10.088,23.539,10.088c8.744,0,17.486-3.362,23.539-10.088
				c6.053-6.053,10.088-14.795,10.088-23.538s-3.362-17.486-10.088-23.539C189.725,141.903,180.983,138.541,172.239,138.541z"/>
			<path d="M172.239,263.631c-14.795,0-26.901,12.105-26.901,26.901v26.899c0,14.797,12.105,26.901,26.901,26.901
				s26.902-12.104,26.902-26.901v-26.899C199.141,275.062,187.036,263.631,172.239,263.631z"/>
			<path d="M274.464,139.886c4.707,0,9.415-1.345,13.45-3.363l23.538-13.451c12.778-7.397,17.486-24.211,10.088-36.989
				c-7.396-12.778-24.211-17.486-36.987-10.088l-23.539,13.451c-12.778,7.397-17.485,24.211-10.088,36.989
				C256.306,135.178,265.048,139.886,274.464,139.886z"/>
			<path d="M56.565,207.811l-23.539,13.451c-12.778,7.397-17.485,24.211-10.088,36.989c4.708,8.742,14.123,13.45,23.539,13.45
				c4.708,0,9.416-1.345,13.451-3.362l23.539-13.451c12.778-7.396,17.485-24.211,10.088-36.988
				C86.156,205.121,69.343,200.413,56.565,207.811z"/>
			<path d="M311.453,221.262l-23.538-13.451c-12.777-7.396-29.592-2.688-36.988,10.089c-7.397,12.777-2.69,29.592,10.088,36.988
				l23.539,13.451c4.034,2.689,8.741,3.362,13.449,3.362c9.415,0,18.158-4.708,23.538-13.45
				C328.939,245.473,324.231,228.659,311.453,221.262z"/>
			<path d="M83.466,90.119L59.927,76.668c-12.778-7.397-29.591-3.362-36.989,10.088c-7.397,13.451-3.362,29.591,10.088,36.989
				l23.539,13.45c4.035,2.69,8.743,3.363,13.451,3.363c9.416,0,18.158-4.708,23.539-13.451
				C100.951,113.657,96.244,97.517,83.466,90.119z"/>
		</g>
	</g>
</g>
<g>
</g>
<g>
</g>
<g>
</g>
<g>
</g>
<g>
</g>
<g>
</g>
<g>
</g>
<g>
</g>
<g>
</g>
<g>
</g>
<g>
</g>
<g>
</g>
<g>
</g>
<g>
</g>
<g>
</g>
</svg>
