<?xml version='1.0' encoding='utf-8'?>
<!DOCTYPE svg PUBLIC '-//W3C//DTD SVG 1.1//EN' 'http://www.w3.org/Graphics/SVG/1.1/DTD/svg11.dtd'>
<svg version="1.1" xmlns="http://www.w3.org/2000/svg" viewBox="0 0 512 512" xmlns:xlink="http://www.w3.org/1999/xlink" enable-background="new 0 0 512 512">
  <g>
    <path d="M276.4,40.2v-8.8c0-11.3-9.1-20.4-20.4-20.4c-11.3,0-20.4,9.1-20.4,20.4v8.8C110,49.8,11,147.1,11,265.4   c0,11.3,9.1,20.4,20.4,20.4h204.2v145c0,38.7,33.5,70.1,74.7,70.1c41.2,0,74.7-31.5,74.7-70.1c0-11.3-9.1-20.4-20.4-20.4   c-11.3,0-20.4,9.1-20.4,20.4c0,16.2-15.2,29.3-33.9,29.3c-18.7,0-33.9-13.1-33.9-29.3v-145h204.2c11.3,0,20.4-9.1,20.4-20.4   C501,147.1,402,49.8,276.4,40.2z M53.1,245C64.3,152.5,151,80.2,256,80.2c105,0,191.7,72.2,202.9,164.7H53.1z"/>
  </g>
</svg>
